<?xml version="1.0" encoding="UTF-8"?>
<svg id="_Слой_1" data-name="Слой 1" xmlns="http://www.w3.org/2000/svg" viewBox="0 0 242.28 96.38">
  <defs>
    <style>
      .cls-1 {
        fill: #1e5b83;
      }

      .cls-2 {
        fill: #6abeeb;
      }

      .cls-3 {
        fill: #4482a8;
      }
    </style>
  </defs>
  <path class="cls-2" d="m54.38,61.89c-.52.2-1.06.37-1.58.56-2.21.79-4.42,1.59-6.63,2.38-2.34.83-4.67,1.66-7.01,2.49-2.13.76-4.26,1.53-6.4,2.29-2.67.95-5.35,1.9-8.02,2.85-2.21.79-4.42,1.58-6.64,2.37-2.33.83-4.65,1.65-6.98,2.48-2.51.89-5.01,1.79-7.52,2.68-1.2.43-2.4.86-3.6,1.29v.06c.11-.02.22-.03.32-.05,2.58-.51,5.17-1.04,7.75-1.54,1.94-.38,3.89-.74,5.83-1.12,2.67-.52,5.33-1.07,8-1.59,3.05-.6,6.11-1.19,9.16-1.78,2.32-.45,4.63-.9,6.95-1.36,2.07-.41,4.14-.82,6.21-1.23,1.67-.33,3.35-.64,5.02-.97,1.71-.33,3.42-.67,5.12-1.01.05-.01.1-.01.15-.01v-8.85s-.09.02-.14.04Z"/>
  <path class="cls-1" d="m74.69,84.64c-.65-.76-1.31-1.51-1.97-2.27-1.79-2.05-3.59-4.09-5.38-6.13-2.24-2.57-4.48-5.14-6.73-7.71-1.89-2.16-3.79-4.32-5.67-6.49-.13-.15-.26-.21-.41-.18v8.85c.11,0,.21.04.31.12,2.77,1.97,5.54,3.94,8.32,5.9,3.64,2.58,7.28,5.16,10.92,7.73.23.17.45.38.74.48.03-.15-.07-.22-.13-.3Z"/>
  <path class="cls-2" d="m54.34,75.18c-2.77.65-5.55,1.28-8.33,1.92-1.56.36-3.11.72-4.67,1.08-1.72.4-3.44.79-5.16,1.19-1.79.41-3.57.84-5.36,1.25-2.19.5-4.38.99-6.56,1.5-2.82.65-5.64,1.33-8.46,1.98-2.67.62-5.35,1.22-8.02,1.83-1.36.31-2.72.62-4.08.94-1.22.28-2.43.56-3.65.85.73.04,1.44-.06,2.15-.1,1.57-.09,3.14-.21,4.7-.34.8-.06,1.6-.1,2.39-.17,1.35-.13,2.71-.21,4.06-.31,1.09-.08,2.18-.2,3.28-.25,1.13-.05,2.26-.18,3.38-.26,1.09-.08,2.19-.15,3.28-.23,1.45-.11,2.9-.23,4.35-.34,1.08-.08,2.16-.15,3.24-.24,1.45-.11,2.9-.23,4.35-.34,1.05-.08,2.09-.16,3.14-.24,1.13-.09,2.26-.17,3.38-.26,1.12-.08,2.23-.16,3.35-.25,1.41-.11,2.83-.22,4.24-.33,1.16-.09,2.33-.18,3.49-.26.57-.04,1.14-.11,1.7-.09v-8.54c-.06,0-.13.01-.19.03Z"/>
  <path class="cls-1" d="m74.53,86.42c-1.8-1.03-3.6-2.07-5.4-3.1-4.67-2.67-9.34-5.34-14.01-8.02-.2-.11-.38-.16-.59-.15v8.54c.06,0,.12,0,.19,0,.89.07,1.77.25,2.65.38,3.1.47,6.2.95,9.3,1.42,2.62.4,5.23.79,7.85,1.19.1.02.23.1.34-.06-.11-.07-.22-.15-.33-.22Z"/>
  <path class="cls-2" d="m53.11,88.06c-1.28.08-2.57.14-3.85.23-1.78.12-3.56.29-5.35.38-1.33.07-2.66.21-3.99.26-1.23.05-2.45.2-3.67.26-1.08.05-2.16.13-3.24.21-1.26.09-2.52.19-3.78.27-1.85.12-3.71.27-5.56.39-1.95.13-3.9.26-5.85.4-2.11.15-4.23.29-6.34.44-2.07.15-4.14.25-6.2.42-1.75.15-3.51.22-5.27.33v.07c.75.07,1.51.13,2.27.2,1.27.11,2.54.21,3.81.31,1.27.11,2.54.22,3.81.33,1.22.11,2.44.21,3.67.32,1.23.11,2.47.22,3.7.32,1.04.09,2.09.17,3.13.26,1.2.1,2.4.24,3.6.31,1.33.08,2.66.23,3.99.32,1.98.14,3.96.37,5.94.54,1.95.17,3.9.3,5.84.47,2.11.18,4.22.37,6.34.55,1.25.11,2.49.21,3.74.31,1.56.13,3.12.27,4.68.4v-8.43c-.47.03-.94.08-1.41.11Z"/>
  <path class="cls-1" d="m74.55,88.57c-.79,0-1.57-.04-2.36-.06-2.23-.05-4.45-.16-6.68-.24-1.3-.05-2.6-.08-3.89-.14-2.02-.09-4.05-.14-6.08-.21-.34-.01-.67,0-1.01.02v8.43s.04,0,.05,0c.16.01.31-.01.45-.07,2.66-1.02,5.32-2.05,7.98-3.07,3.85-1.48,7.71-2.95,11.57-4.42.09-.03.23-.04.22-.14-.01-.15-.17-.1-.26-.1Z"/>
  <path class="cls-3" d="m34.4,53.38c0-4.5,0-9,0-13.49,0-.36.09-.52.46-.6,2.19-.45,4.39-.57,6.61-.32.74.08,1.46.21,2.19.35.26.05.36.19.35.44-.01.21,0,.43,0,.64,0,7.67,0,15.34,0,23.01,0,.59,0,.61-.56.81-2.58.92-5.17,1.84-7.75,2.76-.33.12-.65.23-.98.35-.21.08-.32.04-.31-.21,0-.1,0-.19,0-.29,0-4.49,0-8.97,0-13.46Z"/>
  <path class="cls-2" d="m33.05,53.94c0,4.49,0,8.97,0,13.46,0,.39-.11.55-.49.68-1.39.46-2.77.97-4.15,1.46-.43.15-.43.14-.39-.32.01-.15.01-.31.01-.47,0-8.49,0-16.97,0-25.46,0-.19.02-.39-.02-.57-.1-.36.03-.57.34-.76,1.29-.8,2.66-1.45,4.09-1.96.61-.22.62-.21.62.43,0,4.5,0,9,0,13.5Z"/>
  <path class="cls-1" d="m45.34,51.64c0-3.84,0-7.68,0-11.53,0-.32.11-.33.35-.25,1.58.55,3.09,1.25,4.52,2.15.24.15.25.35.25.58,0,2.89,0,5.78,0,8.66,0,3.32,0,6.63.01,9.95,0,.41-.14.59-.51.72-1.43.49-2.86,1-4.28,1.52-.29.11-.34.04-.33-.25,0-3.85,0-7.71,0-11.56h0Z"/>
  <path class="cls-3" d="m34.4,32.59c0-1.57,0-3.15,0-4.72,0-.32.11-.46.43-.53,1.94-.43,3.9-.52,5.87-.42.98.05,1.94.23,2.9.42.32.06.42.21.42.53-.01,2.48,0,4.96,0,7.44,0,.68,0,1.36,0,2.04,0,.29-.09.41-.4.34-1.74-.37-3.51-.54-5.29-.47-1.17.05-2.32.24-3.47.45-.43.08-.44.07-.44-.37,0-1.57,0-3.15,0-4.72Z"/>
  <path class="cls-1" d="m45.34,32.99c0-1.6,0-3.2,0-4.8,0-.39,0-.39.38-.27,1.55.51,3,1.22,4.39,2.07.24.15.34.31.34.6,0,3.16,0,6.32,0,9.48,0,.14.06.32-.09.39-.13.06-.24-.07-.35-.14-1.37-.85-2.82-1.55-4.36-2.04-.24-.07-.31-.19-.31-.44.01-1.62,0-3.24,0-4.87Z"/>
  <path class="cls-2" d="m28.03,35.33c0-1.53.01-3.05,0-4.58,0-.4.13-.62.47-.82,1.34-.8,2.73-1.47,4.2-1.97.27-.09.35-.06.35.24,0,3.19,0,6.37,0,9.56,0,.27-.1.41-.35.49-1.51.5-2.94,1.18-4.29,2.02-.1.06-.21.21-.34.12-.1-.07-.03-.22-.03-.34v-4.73h0Z"/>
  <path class="cls-3" d="m34.4,23.91c0-.61.02-1.22,0-1.82-.02-.36.12-.5.46-.57,1.71-.35,3.44-.48,5.19-.43,1.22.04,2.42.2,3.61.47.26.06.35.18.35.44,0,1.29,0,2.58,0,3.86,0,.31-.1.4-.41.33-1.47-.34-2.96-.49-4.47-.48-1.44,0-2.88.15-4.29.47-.42.1-.44.08-.44-.36,0-.63,0-1.26,0-1.9Z"/>
  <path class="cls-3" d="m45.37,19.6c0,.31,0,.62,0,.93,0,.27-.1.34-.35.25-1.09-.36-2.22-.58-3.36-.71-1.34-.14-2.67-.23-4.03-.09-1.44.15-2.86.38-4.24.79-.25.08-.36-.02-.35-.27,0-.62,0-1.24,0-1.86,0-.22.1-.35.29-.45,1.57-.84,3.23-1.37,5.03-1.5,2.08-.15,4.03.24,5.91,1.09.29.13.57.29.86.44.17.08.24.22.24.4,0,.32,0,.64,0,.97h0Z"/>
  <path class="cls-1" d="m45.34,24.3c0-.66,0-1.31,0-1.97,0-.24.04-.34.3-.25,1.62.55,3.16,1.28,4.61,2.19.15.09.21.22.21.39,0,1.34,0,2.67,0,4.01,0,.33-.09.38-.36.2-1.39-.88-2.86-1.58-4.42-2.1-.24-.08-.34-.21-.33-.47.01-.67,0-1.34,0-2h0Z"/>
  <path class="cls-2" d="m33.05,24.39c0,.64,0,1.29,0,1.93,0,.18-.02.31-.24.38-1.52.49-2.95,1.15-4.3,2-.04.03-.08.05-.13.07-.11.04-.2.18-.32.11-.14-.08-.05-.24-.05-.36,0-1.26.06-2.53-.03-3.79-.01-.18.02-.28.18-.38,1.4-.92,2.9-1.64,4.5-2.17.29-.1.39,0,.39.29,0,.64,0,1.29,0,1.93Z"/>
  <path class="cls-3" d="m42.18,15.91c-.17-1.23-1.03-2.21-2.23-2.52-.08-.02-.14-.04-.2-.06h-1.02s-.07.02-.12.03c-.46.06-.87.26-1.23.54-.66.5-1.05,1.16-1.18,1.97-.04.26.06.38.33.37,1.79,0,3.58,0,5.37,0,.23,0,.31-.08.28-.33Z"/>
  <path class="cls-2" d="m39.42,12.7c0-.27.14-.4.32-.55.49-.39.55-1.11.06-1.41-.37-.23-.41-.51-.39-.86,0-.18,0-.36-.02-.53-.03-.18,0-.31.13-.45.25-.25.25-.53,0-.79-.14-.14-.17-.3-.18-.48-.03-.88-.01-1.76-.06-2.64-.08-1.51-.06-3.03-.09-4.54,0-.13.03-.26-.06-.44,0,.12-.01.19-.01.26.03,1.75-.06,3.5-.07,5.26,0,.51.02,1.03-.01,1.54-.02.41.01.83-.3,1.18-.12.13-.16.36-.03.5.35.37.24.82.26,1.25.01.28-.06.48-.31.66-.53.36-.61,1.13-.13,1.44.38.25.39.55.37.91,0,.17-.06.27-.19.33h1.02c-.28-.1-.31-.22-.32-.62Z"/>
</svg>