<?xml version="1.0" encoding="UTF-8"?><svg id="a" xmlns="http://www.w3.org/2000/svg" width="350.42" height="96.38" viewBox="0 0 350.42 96.38"><g><path d="m54.38,61.89c-.52.2-1.06.37-1.58.56-2.21.79-4.42,1.59-6.63,2.38-2.34.83-4.67,1.66-7.01,2.49-2.13.76-4.26,1.53-6.4,2.29-2.67.95-5.35,1.9-8.02,2.85-2.21.79-4.42,1.58-6.64,2.37-2.33.83-4.65,1.65-6.98,2.48-2.51.89-5.01,1.79-7.52,2.68-1.2.43-2.4.86-3.6,1.29v.06c.11-.02.22-.03.32-.05,2.58-.51,5.17-1.04,7.75-1.54,1.94-.38,3.89-.74,5.83-1.12,2.67-.52,5.33-1.07,8-1.59,3.05-.6,6.11-1.19,9.16-1.78,2.32-.45,4.63-.9,6.95-1.36,2.07-.41,4.14-.82,6.21-1.23,1.67-.33,3.35-.64,5.02-.97,1.71-.33,3.42-.67,5.12-1.01.05-.01.1-.01.15-.01v-8.85s-.09.02-.14.04Z" style="fill:#6abeeb;"/><path d="m74.69,84.64c-.65-.76-1.31-1.51-1.97-2.27-1.79-2.05-3.59-4.09-5.38-6.13-2.24-2.57-4.48-5.14-6.73-7.71-1.89-2.16-3.79-4.32-5.67-6.49-.13-.15-.26-.21-.41-.18v8.85c.11,0,.21.04.31.12,2.77,1.97,5.54,3.94,8.32,5.9,3.64,2.58,7.28,5.16,10.92,7.73.23.17.45.38.74.48.03-.15-.07-.22-.13-.3Z" style="fill:#1e5b83;"/><path d="m54.34,75.18c-2.77.65-5.55,1.28-8.33,1.92-1.56.36-3.11.72-4.67,1.08-1.72.4-3.44.79-5.16,1.19-1.79.41-3.57.84-5.36,1.25-2.19.5-4.38.99-6.56,1.5-2.82.65-5.64,1.33-8.46,1.98-2.67.62-5.35,1.22-8.02,1.83-1.36.31-2.72.62-4.08.94-1.22.28-2.43.56-3.65.85.73.04,1.44-.06,2.15-.1,1.57-.09,3.14-.21,4.7-.34.8-.06,1.6-.1,2.39-.17,1.35-.13,2.71-.21,4.06-.31,1.09-.08,2.18-.2,3.28-.25,1.13-.05,2.26-.18,3.38-.26,1.09-.08,2.19-.15,3.28-.23,1.45-.11,2.9-.23,4.35-.34,1.08-.08,2.16-.15,3.24-.24,1.45-.11,2.9-.23,4.35-.34,1.05-.08,2.09-.16,3.14-.24,1.13-.09,2.26-.17,3.38-.26,1.12-.08,2.23-.16,3.35-.25,1.41-.11,2.83-.22,4.24-.33,1.16-.09,2.33-.18,3.49-.26.57-.04,1.14-.11,1.7-.09v-8.54c-.06,0-.13.01-.19.03Z" style="fill:#6abeeb;"/><path d="m74.53,86.42c-1.8-1.03-3.6-2.07-5.4-3.1-4.67-2.67-9.34-5.34-14.01-8.02-.2-.11-.38-.16-.59-.15v8.54c.06,0,.12,0,.19,0,.89.07,1.77.25,2.65.38,3.1.47,6.2.95,9.3,1.42,2.62.4,5.23.79,7.85,1.19.1.02.23.1.34-.06-.11-.07-.22-.15-.33-.22Z" style="fill:#1e5b83;"/><path d="m53.11,88.06c-1.28.08-2.57.14-3.85.23-1.78.12-3.56.29-5.35.38-1.33.07-2.66.21-3.99.26-1.23.05-2.45.2-3.67.26-1.08.05-2.16.13-3.24.21-1.26.09-2.52.19-3.78.27-1.85.12-3.71.27-5.56.39-1.95.13-3.9.26-5.85.4-2.11.15-4.23.29-6.34.44-2.07.15-4.14.25-6.2.42-1.75.15-3.51.22-5.27.33v.07c.75.07,1.51.13,2.27.2,1.27.11,2.54.21,3.81.31,1.27.11,2.54.22,3.81.33,1.22.11,2.44.21,3.67.32,1.23.11,2.47.22,3.7.32,1.04.09,2.09.17,3.13.26,1.2.1,2.4.24,3.6.31,1.33.08,2.66.23,3.99.32,1.98.14,3.96.37,5.94.54,1.95.17,3.9.3,5.84.47,2.11.18,4.22.37,6.34.55,1.25.11,2.49.21,3.74.31,1.56.13,3.12.27,4.68.4v-8.43c-.47.03-.94.08-1.41.11Z" style="fill:#6abeeb;"/><path d="m74.55,88.57c-.79,0-1.57-.04-2.36-.06-2.23-.05-4.45-.16-6.68-.24-1.3-.05-2.6-.08-3.89-.14-2.02-.09-4.05-.14-6.08-.21-.34-.01-.67,0-1.01.02v8.43s.04,0,.05,0c.16.01.31-.01.45-.07,2.66-1.02,5.32-2.05,7.98-3.07,3.85-1.48,7.71-2.95,11.57-4.42.09-.03.23-.04.22-.14-.01-.15-.17-.1-.26-.1Z" style="fill:#1e5b83;"/><path d="m34.4,53.38c0-4.5,0-9,0-13.49,0-.36.09-.52.46-.6,2.19-.45,4.39-.57,6.61-.32.74.08,1.46.21,2.19.35.26.05.36.19.35.44-.01.21,0,.43,0,.64,0,7.67,0,15.34,0,23.01,0,.59,0,.61-.56.81-2.58.92-5.17,1.84-7.75,2.76-.33.12-.65.23-.98.35-.21.08-.32.04-.31-.21,0-.1,0-.19,0-.29,0-4.49,0-8.97,0-13.46Z" style="fill:#4482a8;"/><path d="m33.05,53.94c0,4.49,0,8.97,0,13.46,0,.39-.11.55-.49.68-1.39.46-2.77.97-4.15,1.46-.43.15-.43.14-.39-.32.01-.15.01-.31.01-.47,0-8.49,0-16.97,0-25.46,0-.19.02-.39-.02-.57-.1-.36.03-.57.34-.76,1.29-.8,2.66-1.45,4.09-1.96.61-.22.62-.21.62.43,0,4.5,0,9,0,13.5Z" style="fill:#6abeeb;"/><path d="m45.34,51.64c0-3.84,0-7.68,0-11.53,0-.32.11-.33.35-.25,1.58.55,3.09,1.25,4.52,2.15.24.15.25.35.25.58,0,2.89,0,5.78,0,8.66,0,3.32,0,6.63.01,9.95,0,.41-.14.59-.51.72-1.43.49-2.86,1-4.28,1.52-.29.11-.34.04-.33-.25,0-3.85,0-7.71,0-11.56h0Z" style="fill:#1e5b83;"/><path d="m34.4,32.59c0-1.57,0-3.15,0-4.72,0-.32.11-.46.43-.53,1.94-.43,3.9-.52,5.87-.42.98.05,1.94.23,2.9.42.32.06.42.21.42.53-.01,2.48,0,4.96,0,7.44,0,.68,0,1.36,0,2.04,0,.29-.09.41-.4.34-1.74-.37-3.51-.54-5.29-.47-1.17.05-2.32.24-3.47.45-.43.08-.44.07-.44-.37,0-1.57,0-3.15,0-4.72Z" style="fill:#4482a8;"/><path d="m45.34,32.99c0-1.6,0-3.2,0-4.8,0-.39,0-.39.38-.27,1.55.51,3,1.22,4.39,2.07.24.15.34.31.34.6,0,3.16,0,6.32,0,9.48,0,.14.06.32-.09.39-.13.06-.24-.07-.35-.14-1.37-.85-2.82-1.55-4.36-2.04-.24-.07-.31-.19-.31-.44.01-1.62,0-3.24,0-4.87Z" style="fill:#1e5b83;"/><path d="m28.03,35.33c0-1.53.01-3.05,0-4.58,0-.4.13-.62.47-.82,1.34-.8,2.73-1.47,4.2-1.97.27-.09.35-.06.35.24,0,3.19,0,6.37,0,9.56,0,.27-.1.41-.35.49-1.51.5-2.94,1.18-4.29,2.02-.1.06-.21.21-.34.12-.1-.07-.03-.22-.03-.34v-4.73h0Z" style="fill:#6abeeb;"/><path d="m34.4,23.91c0-.61.02-1.22,0-1.82-.02-.36.12-.5.46-.57,1.71-.35,3.44-.48,5.19-.43,1.22.04,2.42.2,3.61.47.26.06.35.18.35.44,0,1.29,0,2.58,0,3.86,0,.31-.1.4-.41.33-1.47-.34-2.96-.49-4.47-.48-1.44,0-2.88.15-4.29.47-.42.1-.44.08-.44-.36,0-.63,0-1.26,0-1.9Z" style="fill:#4482a8;"/><path d="m45.37,19.6c0,.31,0,.62,0,.93,0,.27-.1.34-.35.25-1.09-.36-2.22-.58-3.36-.71-1.34-.14-2.67-.23-4.03-.09-1.44.15-2.86.38-4.24.79-.25.08-.36-.02-.35-.27,0-.62,0-1.24,0-1.86,0-.22.1-.35.29-.45,1.57-.84,3.23-1.37,5.03-1.5,2.08-.15,4.03.24,5.91,1.09.29.13.57.29.86.44.17.08.24.22.24.4,0,.32,0,.64,0,.97h0Z" style="fill:#4482a8;"/><path d="m45.34,24.3c0-.66,0-1.31,0-1.97,0-.24.04-.34.3-.25,1.62.55,3.16,1.28,4.61,2.19.15.09.21.22.21.39,0,1.34,0,2.67,0,4.01,0,.33-.09.38-.36.2-1.39-.88-2.86-1.58-4.42-2.1-.24-.08-.34-.21-.33-.47.01-.67,0-1.34,0-2h0Z" style="fill:#1e5b83;"/><path d="m33.05,24.39c0,.64,0,1.29,0,1.93,0,.18-.02.31-.24.38-1.52.49-2.95,1.15-4.3,2-.04.03-.08.05-.13.07-.11.04-.2.18-.32.11-.14-.08-.05-.24-.05-.36,0-1.26.06-2.53-.03-3.79-.01-.18.02-.28.18-.38,1.4-.92,2.9-1.64,4.5-2.17.29-.1.39,0,.39.29,0,.64,0,1.29,0,1.93Z" style="fill:#6abeeb;"/><path d="m42.18,15.91c-.17-1.23-1.03-2.21-2.23-2.52-.08-.02-.14-.04-.2-.06h-1.02s-.07.02-.12.03c-.46.06-.87.26-1.23.54-.66.5-1.05,1.16-1.18,1.97-.04.26.06.38.33.37,1.79,0,3.58,0,5.37,0,.23,0,.31-.08.28-.33Z" style="fill:#4482a8;"/><path d="m39.42,12.7c0-.27.14-.4.32-.55.49-.39.55-1.11.06-1.41-.37-.23-.41-.51-.39-.86,0-.18,0-.36-.02-.53-.03-.18,0-.31.13-.45.25-.25.25-.53,0-.79-.14-.14-.17-.3-.18-.48-.03-.88-.01-1.76-.06-2.64-.08-1.51-.06-3.03-.09-4.54,0-.13.03-.26-.06-.44,0,.12-.01.19-.01.26.03,1.75-.06,3.5-.07,5.26,0,.51.02,1.03-.01,1.54-.02.41.01.83-.3,1.18-.12.13-.16.36-.03.5.35.37.24.82.26,1.25.01.28-.06.48-.31.66-.53.36-.61,1.13-.13,1.44.38.25.39.55.37.91,0,.17-.06.27-.19.33h1.02c-.28-.1-.31-.22-.32-.62Z" style="fill:#6abeeb;"/></g><g><path d="m180.23,43.56c.65-1.6,1.31-3.18,1.95-4.77,1.14-2.83,2.29-5.65,3.41-8.48.31-.8.81-1.11,1.65-1.1,2.38.04,4.77.03,7.15-.01.58-.01.96.19,1.03.73.08.62-.49.56-.86.62-1.73.26-2.02.58-2.02,2.36,0,5.57,0,11.15,0,16.72,0,1.5.28,1.77,1.76,1.85.06,0,.13,0,.19,0,.62-.05.9.38.91.87,0,.54-.51.47-.87.47-1.41.01-2.82,0-4.24,0-1.79,0-3.58,0-5.37,0-.31,0-.64-.02-.92-.14-.28-.12-.59-.34-.55-.7.05-.37.42-.32.68-.35,2.14-.29,2.33-.5,2.33-2.75,0-4.7,0-9.41,0-14.11,0-.25-.02-.5-.05-1.04-.88,1.61-1.39,3.09-1.97,4.52-1.77,4.3-3.49,8.62-5.27,12.92-.22.53-.28,1.36-.98,1.4-.79.04-.86-.81-1.1-1.38-2.31-5.46-4.61-10.93-6.92-16.4-.1-.25-.1-.59-.46-.68-.27.26-.16.6-.16.9,0,4.77,0,9.54,0,14.3,0,1.47.5,2.01,1.94,2.15.31.03.62.01.84.33.36.51.21,1-.4,1.01-2.13.04-4.27.02-6.4,0-.48,0-.91-.31-.93-.78-.02-.47.51-.37.82-.43,1.59-.34,2.17-.94,2.18-2.63.03-5.51.02-11.02,0-16.53,0-1.41-.34-1.7-1.73-1.88-.22-.03-.45-.04-.63-.15-.32-.19-.72-.43-.64-.85.07-.37.52-.31.81-.31,2.6-.02,5.21-.02,7.81-.04.77,0,.99.63,1.22,1.16.92,2.12,1.8,4.25,2.69,6.38.84,2.01,1.68,4.02,2.53,6.03.11.25.14.57.55.77Z" style="fill:#4482a8;"/><path d="m320.44,37.72c-.86,1.03-1.43,2.17-2.1,3.23-1.43,2.27-2.84,4.56-4.25,6.85-.22.35-.44.72-.56,1.11-.53,1.7.23,2.75,1.95,2.63.61-.04.97.22,1.02.72.06.6-.51.56-.89.56-3.42.01-6.84,0-10.26,0-.32,0-.63-.05-.86-.32-.14-.16-.38-.28-.31-.55.07-.27.31-.3.53-.31,2.37-.04,2.64-.29,2.67-3.34.04-4.96.01-9.92,0-14.89,0-.35,0-.71-.03-1.06-.15-1.6-.23-1.68-1.82-1.79-.19-.01-.38-.01-.56-.08-.4-.15-.82-.43-.8-.84.02-.52.59-.39.92-.4,3.51-.03,7.03-.03,10.54-.05.52,0,.8.29.86.71.08.54-.4.57-.77.63-2.03.35-2.34.57-2.38,2.6-.07,3.64,0,7.28,0,10.92,0,.09.06.17.09.27.42,0,.5-.38.65-.62,2.04-3.29,4.06-6.59,6.11-9.87.5-.79.42-1.59.24-2.41-.12-.55-.52-.77-1.04-.82-.25-.02-.5-.03-.75-.05-.59-.04-1.17-.33-1.15-.9.02-.51.7-.42,1.11-.42,3.39-.02,6.78,0,10.17-.04.61,0,.92.32.94.83.02.52-.49.49-.85.53-1.95.22-2.22.5-2.22,2.53,0,5.48,0,10.96,0,16.43,0,1.62.39,2,1.95,1.97.28,0,.59-.09.8.17.17.21.42.44.34.76-.09.34-.4.39-.68.39-.94.01-1.88.01-2.82.01-2.35,0-4.71,0-7.06,0-.31,0-.64.01-.93-.07-.37-.1-.76-.37-.75-.76.02-.48.52-.34.84-.38,1.89-.19,2.2-.4,2.23-2.23.07-3.77.03-7.54.03-11.31,0-.08-.06-.17-.13-.35Z" style="fill:#4482a8;"/><path d="m290.56,29.03c6.33-.39,10.35,3.82,11.76,8.23,1.82,5.68-.4,11.86-5.45,14.63-6.51,3.56-16.4,1.06-18.1-9.05-.81-4.81.84-8.76,4.65-11.66,2.13-1.62,4.59-2.32,7.14-2.14Zm5.72,11.99c.05-1.45-.05-2.9-.23-4.33-.08-.6-.21-1.21-.37-1.79-.37-1.34-1.01-2.52-2.21-3.24-2.56-1.55-5.38-.66-6.79,2.05-1.02,1.96-1.24,4.1-1.37,6.26-.18,3.12.09,6.18,1.43,9.04.54,1.16,1.41,1.94,2.68,2.22,2.57.58,4.62-.5,5.72-3.02,1-2.29,1.2-4.71,1.15-7.18Z" style="fill:#4482a8;"/><path d="m139.37,52.83c-2.39,0-4.33,0-6.27,0-.28,0-.57.01-.84-.05-.42-.09-.82-.37-.82-.8,0-.45.52-.36.83-.45.24-.07.5-.07.75-.07.88,0,1.32-.51,1.45-1.34.06-.41.08-.83.08-1.25,0-5.25,0-10.49,0-15.74,0-.39-.04-.77-.04-1.16,0-.88-.47-1.28-1.27-1.36-.19-.02-.37-.03-.56-.05-.56-.05-1.06-.37-1.04-.9.02-.49.63-.42,1.02-.42,3.29-.02,6.58-.01,9.88-.04.57,0,.84.31.88.78.05.55-.43.54-.8.59-1.77.25-2.02.54-2.03,2.32,0,1.83.04,3.67-.02,5.5-.03.96.25,1.33,1.22,1.28,2.07-.1,4.13.04,6.15.62,2.89.84,4.84,3.76,4.66,6.5-.2,3.05-2.71,5.44-5.85,5.84-2.6.33-5.2.1-7.35.19Zm6.46-6.15c.03-2.88-1.31-4.48-3.77-4.67-1.25-.1-1.47.16-1.39,1.48.05.87.11,1.75.03,2.61-.11,1.17.08,2.31.07,3.47,0,.52.13,1.03.71,1.24,1.09.39,2.8-.2,3.46-1.2.61-.94.92-1.97.89-2.92Z" style="fill:#4482a8;"/><path d="m127.58,41.3c0,2.71-.01,5.41,0,8.12,0,1.65.23,1.91,1.81,2.02.59.04.91.35.91.87,0,.52-.5.49-.87.5-3.14,0-6.28,0-9.42,0-.16,0-.32,0-.47-.04-.41-.1-.84-.32-.83-.78,0-.46.51-.39.82-.45,1.89-.38,1.97-.45,1.98-2.43.01-5.51,0-11.02.03-16.53,0-.9-.23-1.31-1.17-1.24-.81.06-1.63.05-2.45,0-.82-.04-1.1.31-1.1,1.14.02,3.22.04,6.45-.03,9.67-.06,2.59-.39,5.14-1.7,7.45-1.34,2.34-3.25,3.6-5.96,3.42-1.53-.1-2.96-1.38-3.24-2.91-.25-1.35.41-2.53,1.67-2.97,1.06-.37,2.06.11,2.71,1.32.2.37.29.77.37,1.19.15.8.57,1.02,1.28.62.74-.41,1.23-1.08,1.65-1.81,1.05-1.85,1.24-3.92,1.3-5.97.09-3.32.06-6.64.05-9.96,0-1.5-.29-1.79-1.73-1.94-.16-.02-.31-.01-.47-.04-.47-.09-.92-.4-.91-.84,0-.54.59-.48.97-.48,5.52-.02,11.05-.02,16.57-.04.56,0,.85.33.91.78.07.54-.44.52-.8.59-1.48.26-1.87.66-1.89,2.23-.03,2.84,0,5.67-.01,8.51Z" style="fill:#4482a8;"/><path d="m263.75,29.24c2.75.04,5.52-.24,8.23.53,2.56.72,4.17,2.42,4.79,5.05.6,2.57-.81,5.29-3.27,6.52-1.8.9-3.74.99-5.69,1.04-1.33.03-1.43.08-1.4,1.41.04,2.06-.16,4.12.12,6.17.17,1.24.39,1.43,1.63,1.53.19.02.38-.02.56.02.42.1.65.45.66.83,0,.4-.39.47-.7.47-3.29,0-6.59,0-9.88,0-.29,0-.56-.1-.76-.33-.14-.16-.38-.29-.31-.55.07-.26.32-.29.54-.3,2.08-.09,2.43-.51,2.42-3.09-.02-5.28,0-10.56-.01-15.85,0-1.72-.15-1.88-1.83-2.13-.18-.03-.39-.05-.54-.14-.3-.18-.64-.41-.59-.8.05-.42.48-.37.77-.38,1.76-.02,3.51,0,5.27,0Zm2.81,6.62c0,1.19.03,2.38-.01,3.57-.03.84.36,1.11,1.09.99,1.15-.18,2.07-.69,2.57-1.85.6-1.4.7-2.84.48-4.35-.26-1.78-1.45-2.88-3.17-2.9-.67,0-.98.24-.97.95.02,1.19,0,2.38,0,3.57Z" style="fill:#4482a8;"/><path d="m245.8,29.22c2.98,0,5.96,0,8.94,0,.91,0,1.4.39,1.43,1.35.05,1.51.02,3.03.02,4.54,0,.36-.04.76-.48.82-.4.06-.65-.25-.79-.58-.22-.53-.33-1.11-.54-1.65-.74-1.9-3.2-3.09-5.09-2.48-.59.19-.59.69-.59,1.17,0,2.32,0,4.64,0,6.96.01,3.44-.05,6.89.09,10.33.06,1.33.61,1.89,1.96,1.85.42-.01.68.03.92.43.31.51.11.71-.34.81-.21.05-.44.04-.66.04-3.11,0-6.21,0-9.32,0-.51,0-1.01,0-1.39-.42-.13-.14-.29-.27-.22-.49.07-.22.27-.23.46-.27,2.49-.53,2.55-.53,2.57-3.17.05-5.41.02-10.82.05-16.23,0-.8-.27-1.06-1.05-1.06-2.55.01-4.07,1.14-4.79,3.64-.04.15-.08.31-.13.47-.1.34-.18.76-.62.71-.4-.04-.73-.39-.74-.77-.04-1.77-.06-3.54,0-5.31.03-.75.73-.69,1.25-.69,3.01-.01,6.02,0,9.04,0h0Z" style="fill:#4482a8;"/><path d="m231.97,47.2c.97,1.21.9,2.07-.1,3.05-4.99,4.88-13.54,3.51-17.29-.58-4.15-4.53-4.4-11.44-.49-16.2,3.4-4.14,8.94-5.74,13.88-3.97.68.24,1.37.47,2.05.72.8.3,1.34.09,1.64-.75.12-.34.25-.75.67-.69.37.05.5.47.59.8.09.33.11.7.12,1.05.01,1.71.02,3.41,0,5.12,0,.53.25,1.35-.51,1.45-.63.08-.83-.65-.99-1.22-.51-1.85-1.53-3.28-3.19-4.23-3.79-2.15-8.37-.22-9.76,4.2-1.2,3.8-.99,7.6.27,11.37,1.02,3.06,3.91,4.14,6.56,3.85,2.99-.33,4.54-1.34,6.57-3.97Z" style="fill:#4482a8;"/><path d="m100.29,52.82c-1.35,0-2.7,0-4.05,0-.31,0-.64,0-.93-.09-.36-.11-.78-.33-.77-.74.02-.5.52-.34.83-.39,1.76-.24,2.05-.75,1.39-2.43q-1.17-2.94-4.26-2.94c-1.22,0-2.45.02-3.67,0-.58-.01-.96.23-1.16.78-.32.87-.82,1.67-.93,2.62-.14,1.22.21,1.66,1.38,1.8.25.03.51,0,.75.08.37.11.57.44.58.8.01.42-.35.5-.67.5-2.04,0-4.08,0-6.12,0-.48,0-.91-.3-.99-.75-.09-.53.49-.47.81-.6.74-.3,1.26-.81,1.63-1.52,1.74-3.29,3.05-6.78,4.57-10.17,1.5-3.33,2.93-6.7,4.39-10.05.15-.34.26-.85.66-.86.44-.02.64.49.8.85.71,1.58,1.38,3.17,2.06,4.76,2.01,4.69,4.01,9.37,6.03,14.05.21.5.46.99.72,1.46.37.69.81,1.29,1.64,1.47.45.1.7.48.65.93-.06.46-.49.43-.83.43-1.51,0-3.01,0-4.52,0Zm-8.54-8.55c.69,0,1.38-.02,2.07,0,.66.02.74-.25.49-.82-.7-1.61-1.38-3.24-2.07-4.86-.08-.19-.09-.49-.4-.45-.21.03-.26.26-.34.43-.73,1.67-1.44,3.35-2.19,5.02-.25.56-.03.68.47.68.66-.01,1.32,0,1.97,0Z" style="fill:#4482a8;"/><path d="m160.57,41.74c.11,2.3-.18,5.23.14,8.16.13,1.23.62,1.74,1.82,1.63.65-.06,1.05.2,1.06.76.01.63-.6.53-1.02.54-3.2.01-6.4,0-9.6,0-.25,0-.52,0-.74-.11-.31-.14-.67-.36-.6-.76.06-.34.44-.29.71-.33,2.06-.27,2.29-.53,2.29-2.68,0-5.41,0-10.82,0-16.24,0-1.73-.19-1.94-1.82-2.14-.22-.03-.45-.05-.63-.16-.3-.18-.63-.43-.55-.81.08-.4.49-.35.79-.35,3.45-.02,6.9-.02,10.35-.04.53,0,.76.34.81.76.06.47-.36.59-.7.58-2.17-.04-2.23,1.09-2.29,2.85-.09,2.57-.02,5.15-.02,8.36Z" style="fill:#4482a8;"/><path d="m317.07,27.68c-1.48.02-2.93-.1-4.34-.64-.96-.37-1.66-1.02-2.15-1.92-.58-1.05-.47-1.7.36-2.35.96-.74,1.77-.69,2.58.18.39.42.72.88.93,1.43.4,1.04,1.21,1.44,2.24,1.42,1.06-.01,2.08-.15,2.57-1.36.22-.54.55-1.01.98-1.4.97-.86,2.03-.89,2.75-.07.96,1.08.96,2.19-.05,3.13-1.31,1.23-2.99,1.39-4.65,1.55-.4.04-.81,0-1.22,0Z" style="fill:#4482a8;"/><path d="m196.84,44.14c.15-.68.27-1.45.5-2.18.17-.56.7-.73,1.22-.73,3.16-.01,6.32,0,9.49,0,.66,0,1.12.35,1.17,1,.05.64-.54.73-.99.81-2.83.56-5.66,1.08-8.49,1.64-.55.11-1.08.34-1.62.49-.69.2-1.28-.25-1.28-1.03Z" style="fill:#4482a8;"/></g><text transform="translate(80.59 81.77)" style="fill:#1d1d1b; font-family:TimesNewRomanPSMT, &apos;Times New Roman&apos;; font-size:24px;"><tspan x="0" y="0" style="letter-spacing:-.01em;">С</tspan><tspan x="15.69" y="0" style="letter-spacing:.01em;">т</tspan><tspan x="26.47" y="0">роительная </tspan><tspan x="147.91" y="0" style="letter-spacing:-.05em;">К</tspan><tspan x="162.73" y="0" style="letter-spacing:-.02em;">о</tspan><tspan x="174.27" y="0">мпания</tspan></text></svg>