<svg xmlns="http://www.w3.org/2000/svg"><defs> <clipPath id="a"> <path fill="#fff" d="M0 0h18v18H0z"/> </clipPath> <clipPath id="a"> <path fill="#fff" d="M0 0h18v18H0z"/> </clipPath> <clipPath id="a"> <path fill="#fff" d="M0 0h18v18H0z"/> </clipPath> <clipPath id="a"> <path fill="#fff" d="M0 0h18v18H0z"/> </clipPath> <style> .cls-1{fill:#fff;fill-rule:evenodd} </style> </defs><symbol id="isvg_arrow-right-rounded" viewBox="0 0 244 79"> <path d="M0 1.666c.367-.03 1.101-.109 1.468-.139 9.899 9.939 20.274 19.431 31.194 28.249 23.885 19.193 50.804 36.342 81.324 42.174 22.942 4.602 47.034.843 68.141-8.956 19.49-8.878 36.908-21.613 53.65-34.835-5.346.675-10.682 1.389-16.018 2.053l-.506-3.937c7.409-.962 14.828-1.845 22.228-2.897.377.486 1.13 1.468 1.507 1.964-1.904 7.092-3.61 14.224-5.425 21.345-1.26-.317-2.52-.625-3.779-.932 1.15-4.642 2.331-9.284 3.491-13.926-16.991 12.894-34.239 25.819-53.67 34.845-14.898 6.982-31.214 11.297-47.739 11.108-23.824 0-46.747-8.768-67.1-20.63C43.424 42.154 20.88 22.813.426 1.725L0 2.747v-1.08z"/> </symbol><symbol id="isvg_blockquote_icon_quotes" viewBox="0 0 70 50"> <path d="M15.524.412C6.964.412.001 7.375.001 15.935c0 8.258 6.48 15.031 14.623 15.499.141 1.522.035 5.665-3.935 11.43-.3.434-.246 1.02.127 1.393 1.625 1.625 2.629 2.648 3.332 3.364.92.935 1.34 1.363 1.953 1.92a1.09 1.09 0 0 0 1.453.016c6.918-6.02 14.604-18.459 13.492-33.701C30.394 6.907 23.866.412 15.524.412zm1.323 46.825c-.298-.294-.638-.64-1.139-1.15-.609-.62-1.444-1.47-2.71-2.741 4.818-7.425 3.908-12.713 3.51-13.472a1.133 1.133 0 0 0-.984-.602c-7.353 0-13.335-5.983-13.335-13.337C2.189 8.582 8.17 2.6 15.524 2.6c7.164 0 12.773 5.642 13.34 13.415 1.25 17.144-8.939 28.275-12.017 31.223z"/> <path d="M69.893 15.856v-.001C69.24 6.907 62.711.412 54.371.412c-8.56 0-15.525 6.963-15.525 15.523 0 8.258 6.482 15.031 14.626 15.499.14 1.52.034 5.662-3.938 11.43-.3.434-.245 1.02.127 1.393 1.619 1.618 2.62 2.64 3.323 3.354.924.942 1.346 1.372 1.964 1.931a1.096 1.096 0 0 0 1.452.014c6.919-6.02 14.604-18.458 13.493-33.7zm-14.2 31.381c-.3-.296-.643-.644-1.148-1.159-.609-.62-1.44-1.467-2.703-2.732 4.819-7.426 3.91-12.713 3.513-13.472a1.137 1.137 0 0 0-.984-.602c-7.354 0-13.337-5.983-13.337-13.337C41.034 8.582 47.017 2.6 54.37 2.6c7.162 0 12.773 5.642 13.341 13.416 1.249 17.14-8.94 28.274-12.019 31.222z"/> </symbol><symbol id="isvg_check" viewBox="0 0 7 6"> <path fill="#1D1C1C" fill-rule="evenodd" d="M2.85 4.039L1.375 1.842l-.832.554 1.781 2.672.381.577L6.797.624 6.016 0 2.85 4.039z"/> </symbol><symbol id="isvg_close" viewBox="0 0 24 24"> <path d="M.01 2.131L2.13.01l21.92 21.92-2.12 2.122L.01 2.131zM21.93.01l2.12 2.121L2.13 24.052.01 21.93 21.93.01z"/> </symbol><symbol id="isvg_facebook-messenger" viewBox="0 0 17 17"> <path d="M8.501 0C3.923 0 .199 3.484.199 7.766c0 2.22 1.012 4.315 2.788 5.796V17l3.345-1.738a8.82 8.82 0 0 0 2.17.27c4.577 0 8.301-3.484 8.301-7.766S13.079 0 8.501 0zm0 14.203a7.478 7.478 0 0 1-2.063-.288l-.254-.073-1.869.97v-1.895l-.259-.2C2.45 11.481 1.527 9.676 1.527 7.766c0-3.55 3.129-6.438 6.974-6.438s6.974 2.888 6.974 6.438-3.129 6.437-6.974 6.437zm4.063-8.821l.883.882-3.907 4.112-1.932-1.91-3.063 2.199-.885-.885 3.862-4.156 1.917 1.92 3.125-2.162z"/> </symbol><symbol id="isvg_facebook" viewBox="0 0 18 18"> <path d="M13.5.004L11.164 0C8.543 0 6.848 1.739 6.848 4.43v2.042H4.501a.367.367 0 0 0-.367.367V9.8c0 .203.165.367.367.367h2.347v7.467c0 .203.164.367.367.367h3.062a.367.367 0 0 0 .367-.367v-7.467h2.744a.367.367 0 0 0 .367-.367l.002-2.96a.368.368 0 0 0-.368-.367h-2.745V4.741c0-.832.198-1.255 1.283-1.255h1.572a.367.367 0 0 0 .367-.367V.37a.367.367 0 0 0-.367-.367z"/> </symbol><symbol id="isvg_instagram" viewBox="0 0 18 18"> <path d="M13.033 0H4.966A4.973 4.973 0 0 0 0 4.967v8.066A4.973 4.973 0 0 0 4.967 18h8.066A4.973 4.973 0 0 0 18 13.033V4.967A4.973 4.973 0 0 0 13.033 0zm3.37 13.033a3.374 3.374 0 0 1-3.37 3.37H4.967a3.374 3.374 0 0 1-3.37-3.37V4.967a3.374 3.374 0 0 1 3.37-3.37h8.066a3.374 3.374 0 0 1 3.37 3.37v8.066z"/> <path d="M9 4.362A4.643 4.643 0 0 0 4.362 9 4.643 4.643 0 0 0 9 13.638 4.643 4.643 0 0 0 13.638 9 4.643 4.643 0 0 0 9 4.362zm0 7.679A3.044 3.044 0 0 1 5.959 9a3.044 3.044 0 0 1 3.04-3.041A3.044 3.044 0 0 1 12.042 9 3.044 3.044 0 0 1 9 12.04z"/> <path d="M13.833 3.008a1.176 1.176 0 0 0-1.172 1.171c0 .308.126.61.344.828.217.218.52.343.828.343.308 0 .61-.125.828-.343a1.176 1.176 0 0 0 0-1.657 1.176 1.176 0 0 0-.828-.342z"/> </symbol><symbol id="isvg_mail" viewBox="0 0 16 12"> <path d="M14.125.125H1.875A1.877 1.877 0 0 0 0 2v8c0 1.034.841 1.875 1.875 1.875h12.25A1.877 1.877 0 0 0 16 10V2A1.877 1.877 0 0 0 14.125.125zM14.75 10c0 .345-.28.625-.625.625H1.875A.626.626 0 0 1 1.25 10V2c0-.345.28-.625.625-.625h12.25c.345 0 .625.28.625.625v8z"/> <path d="M14.644.904L8 5.846 1.356.904.61 1.907 8 7.404l7.39-5.497-.746-1.003z"/> </symbol><symbol id="isvg_menu" viewBox="0 0 34 24"> <path d="M2 12h30" stroke-width="4" stroke-linecap="round"/> <path d="M2 2h30" stroke-width="4" stroke-linecap="round"/> <path d="M2 22h30" stroke-width="4" stroke-linecap="round"/> </symbol><symbol id="isvg_minus" viewBox="0 0 15 2"> <path d="M.333 1h14" stroke-width="2"/> </symbol><symbol id="isvg_plus" viewBox="0 0 14 14"> <path d="M7 0v14" stroke-width="2"/> <path d="M0 7h14" stroke-width="2"/> </symbol><symbol id="isvg_telegram" viewBox="0 0 18 18"> <g clip-path="url(#a)"> <path d="M14.49 17.05a.712.712 0 0 1-.4-.123l-4.525-3.07-2.428 1.747a.713.713 0 0 1-1.105-.396l-1.219-4.62L.458 8.923a.713.713 0 0 1-.009-1.327l16.56-6.59a.712.712 0 0 1 .977.8L15.19 16.47a.712.712 0 0 1-.7.58zm-4.528-4.645l4.031 2.735 2.175-11.412-7.855 7.559 1.63 1.105.019.013zm-3.356-.608l.54 2.045 1.163-.837-1.523-1.033a.71.71 0 0 1-.18-.175zM2.673 8.244l2.99 1.144a.713.713 0 0 1 .435.483l.379 1.438a.713.713 0 0 1 .215-.44l7.485-7.202L2.673 8.244z"/> </g> </symbol><symbol id="isvg_viber" viewBox="0 0 18 18"> <g clip-path="url(#a)"> <path d="M15.398 7.553c.021-2.537-2.14-4.864-4.819-5.185-.053-.007-.11-.016-.172-.027a2.504 2.504 0 0 0-.408-.044c-.55 0-.696.385-.735.615-.037.224-.001.412.107.559.181.247.501.29.758.326.075.01.146.02.206.033 2.406.538 3.217 1.384 3.613 3.77.01.058.014.13.018.206.018.285.054.878.692.878.053 0 .11-.004.17-.013.593-.09.575-.633.566-.894-.003-.073-.005-.142.001-.189a.257.257 0 0 0 .003-.035z"/> <path d="M9.843 1.436c.071.005.139.01.195.019 3.951.607 5.769 2.48 6.272 6.462.009.068.01.15.012.238.005.31.015.958.71.972h.022c.218 0 .391-.066.515-.196.216-.226.201-.562.19-.833-.004-.066-.007-.128-.006-.183.05-4.073-3.475-7.766-7.545-7.904-.017 0-.033 0-.049.003a.34.34 0 0 1-.048.002c-.04 0-.09-.003-.144-.007C9.903.005 9.831 0 9.757 0c-.648 0-.771.46-.787.735-.036.635.578.68.873.701z"/> <path d="M16.12 13.064c-.085-.064-.171-.13-.253-.196-.431-.347-.89-.667-1.334-.977a112.53 112.53 0 0 1-.276-.193c-.569-.399-1.08-.593-1.563-.593-.65 0-1.218.36-1.686 1.068-.207.314-.459.467-.769.467-.183 0-.391-.052-.619-.155-1.835-.833-3.146-2.109-3.895-3.793-.363-.814-.245-1.347.392-1.78.362-.245 1.036-.703.989-1.579-.054-.995-2.25-3.988-3.174-4.328A1.802 1.802 0 0 0 2.707 1C1.643 1.36.88 1.987.5 2.817.132 3.619.149 4.56.548 5.54c1.154 2.832 2.776 5.301 4.821 7.34 2.002 1.994 4.463 3.628 7.314 4.856.257.11.527.17.723.215.067.014.125.027.168.039a.28.28 0 0 0 .07.01h.023c1.341 0 2.951-1.225 3.446-2.622.433-1.223-.358-1.828-.994-2.314z"/> <path d="M10.436 4.671c-.23.006-.707.018-.875.505-.079.227-.07.424.028.586.142.238.415.311.663.35.9.145 1.361.643 1.454 1.566.043.43.333.731.705.731a.694.694 0 0 0 .084-.005c.447-.053.664-.382.645-.977.007-.622-.318-1.327-.871-1.89-.555-.563-1.225-.88-1.833-.866z"/> </g> </symbol><symbol id="isvg_vk" viewBox="0 0 18 18"> <g clip-path="url(#a)"> <path d="M17.254 12.158c-.536-.643-1.166-1.191-1.763-1.774-.538-.525-.572-.83-.14-1.436.473-.661.98-1.297 1.457-1.956.445-.615.9-1.229 1.134-1.966.149-.468.017-.675-.463-.757a1.485 1.485 0 0 0-.253-.016l-2.852-.003c-.351-.005-.546.148-.67.46-.167.42-.34.84-.54 1.247-.453.92-.96 1.81-1.67 2.564-.156.166-.329.376-.59.29-.328-.12-.424-.659-.419-.841l-.003-3.292c-.063-.47-.167-.68-.634-.771H6.885c-.395 0-.593.153-.805.4-.121.143-.158.236.092.283.492.094.769.412.842.905.118.788.11 1.579.042 2.37-.02.23-.06.46-.151.677-.143.338-.375.407-.679.199-.275-.189-.468-.455-.657-.723a15.918 15.918 0 0 1-1.74-3.224c-.133-.329-.364-.528-.712-.533a72.671 72.671 0 0 0-2.567 0c-.515.01-.668.26-.459.727.932 2.073 1.97 4.088 3.324 5.924.695.942 1.493 1.774 2.524 2.363 1.169.669 2.427.87 3.752.808.62-.03.806-.19.835-.81.02-.422.068-.843.276-1.223.205-.373.515-.444.873-.212.179.116.33.264.472.42.35.382.686.776 1.048 1.145.455.462.993.736 1.67.68h2.622c.422-.027.641-.545.399-1.016a5.042 5.042 0 0 0-.632-.909z"/> </g> </symbol><symbol id="isvg_whatsapp" viewBox="0 0 18 18"> <g clip-path="url(#a)"> <path d="M13.32 10.343c-.036-.017-1.348-.663-1.581-.747a.908.908 0 0 0-.306-.067c-.177 0-.326.088-.442.261-.131.195-.528.659-.65.798-.017.018-.038.04-.052.04-.011 0-.214-.084-.276-.11-1.408-.612-2.476-2.083-2.623-2.33-.02-.036-.021-.052-.022-.052.006-.02.053-.067.077-.091.072-.07.15-.164.224-.254.036-.043.071-.086.106-.126.109-.127.157-.225.213-.338l.03-.06A.612.612 0 0 0 8 6.691c-.031-.062-.585-1.399-.644-1.54-.142-.338-.329-.496-.59-.496l-.1.004c-.124.005-.795.094-1.092.28-.314.2-.847.832-.847 1.944 0 1 .636 1.946.908 2.305l.038.054c1.044 1.526 2.346 2.656 3.666 3.184 1.271.507 1.873.566 2.215.566.144 0 .259-.011.36-.021l.065-.007c.439-.038 1.404-.538 1.623-1.148.173-.48.218-1.005.104-1.196-.08-.13-.215-.194-.387-.277z"/> <path d="M9.16 0C4.285 0 .319 3.936.319 8.775a8.71 8.71 0 0 0 1.212 4.437l-1.518 4.48a.234.234 0 0 0 .292.297l4.67-1.484a8.9 8.9 0 0 0 4.185 1.043c4.874 0 8.84-3.936 8.84-8.773C18 3.936 14.034 0 9.16 0zm0 15.72a7.004 7.004 0 0 1-3.853-1.148.233.233 0 0 0-.2-.028l-2.34.744.756-2.228a.234.234 0 0 0-.033-.213 6.851 6.851 0 0 1-1.333-4.072c0-3.83 3.142-6.947 7.003-6.947 3.86 0 7.002 3.116 7.002 6.947 0 3.83-3.141 6.945-7.002 6.945z"/> </g> </symbol><symbol id="isvg_zoom" viewBox="0 0 120 120"> <path id="zoom" class="cls-1" d="M720 7513h1v120h-1v-120zm-59 59h120v1H661v-1z" transform="translate(-661 -7513)"/> </symbol></svg>
