<?xml version="1.0" encoding="UTF-8"?><svg id="a" xmlns="http://www.w3.org/2000/svg" width="1" height="1" viewBox="0 0 1 1"><path d="m.67.64s-.01,0-.02,0c-.02,0-.05.02-.07.02-.02,0-.05.02-.07.03-.02,0-.04.02-.07.02-.03,0-.06.02-.08.03-.02,0-.05.02-.07.02-.02,0-.05.02-.07.03-.03,0-.05.02-.08.03-.01,0-.02,0-.04.01H.11s0,0,0,0c.03,0,.05-.01.08-.02.02,0,.04,0,.06-.01.03,0,.06-.01.08-.02.03,0,.06-.01.1-.02.02,0,.05,0,.07-.01.02,0,.04,0,.06-.01.02,0,.03,0,.05-.01.02,0,.04,0,.05-.01,0,0,0,0,0,0v-.09s0,0,0,0h0Z" style="fill:#6cbeeb;"/><path d="m.88.88s-.01-.02-.02-.02c-.02-.02-.04-.04-.06-.06-.02-.03-.05-.05-.07-.08-.02-.02-.04-.04-.06-.07,0,0,0,0,0,0v.09s0,0,0,0c.03.02.06.04.09.06.04.03.08.05.11.08,0,0,0,0,0,0,0,0,0,0,0,0h0Z" style="fill:#205c84;"/><path d="m.67.78s-.06.01-.09.02c-.02,0-.03,0-.05.01-.02,0-.04,0-.05.01-.02,0-.04,0-.06.01-.02,0-.05.01-.07.02-.03,0-.06.01-.09.02-.03,0-.06.01-.08.02-.01,0-.03,0-.04,0-.01,0-.03,0-.04,0,0,0,.01,0,.02,0,.02,0,.03,0,.05,0,0,0,.02,0,.02,0,.01,0,.03,0,.04,0,.01,0,.02,0,.03,0,.01,0,.02,0,.04,0,.01,0,.02,0,.03,0,.02,0,.03,0,.05,0,.01,0,.02,0,.03,0,.02,0,.03,0,.05,0,.01,0,.02,0,.03,0,.01,0,.02,0,.04,0,.01,0,.02,0,.03,0,.01,0,.03,0,.04,0,.01,0,.02,0,.04,0,0,0,.01,0,.02,0v-.09s0,0,0,0h0Z" style="fill:#6cbeeb;"/><path d="m.88.9s-.04-.02-.06-.03c-.05-.03-.1-.06-.15-.08,0,0,0,0,0,0v.09h0s.02,0,.03,0c.03,0,.06,0,.1.01.03,0,.05,0,.08.01,0,0,0,0,0,0,0,0,0,0,0,0h0Z" style="fill:#205c84;"/><path d="m.66.91s-.03,0-.04,0c-.02,0-.04,0-.06,0-.01,0-.03,0-.04,0-.01,0-.03,0-.04,0-.01,0-.02,0-.03,0-.01,0-.03,0-.04,0-.02,0-.04,0-.06,0-.02,0-.04,0-.06,0-.02,0-.04,0-.07,0-.02,0-.04,0-.06,0-.02,0-.04,0-.05,0H.11s.02,0,.02,0c.01,0,.03,0,.04,0,.01,0,.03,0,.04,0,.01,0,.03,0,.04,0s.03,0,.04,0c.01,0,.02,0,.03,0,.01,0,.02,0,.04,0,.01,0,.03,0,.04,0,.02,0,.04,0,.06,0,.02,0,.04,0,.06,0,.02,0,.04,0,.07,0,.01,0,.03,0,.04,0,.02,0,.03,0,.05,0v-.09s0,0-.01,0h0Z" style="fill:#6cbeeb;"/><path d="m.88.92s-.02,0-.02,0c-.02,0-.05,0-.07,0-.01,0-.03,0-.04,0-.02,0-.04,0-.06,0,0,0,0,0-.01,0v.09h0s0,0,0,0c.03-.01.06-.02.08-.03.04-.02.08-.03.12-.05,0,0,0,0,0,0,0,0,0,0,0,0h0Z" style="fill:#205c84;"/><path d="m.47.55v-.14s0,0,0,0c.02,0,.05,0,.07,0,0,0,.02,0,.02,0,0,0,0,0,0,0,0,0,0,0,0,0v.24s0,0,0,0c-.03,0-.05.02-.08.03,0,0,0,0-.01,0,0,0,0,0,0,0H.47v-.14h0Z" style="fill:#4583a9;"/><path d="m.45.56v.14s0,0,0,0c-.01,0-.03.01-.04.02,0,0,0,0,0,0,0,0,0,0,0,0v-.26s0,0,0,0c0,0,0,0,0,0,.01,0,.03-.02.04-.02,0,0,0,0,0,0v.14h0Z" style="fill:#6cbeeb;"/><path d="m.58.54v-.12s0,0,0,0c.02,0,.03.01.05.02,0,0,0,0,0,0v.09s0,.07,0,.1c0,0,0,0,0,0-.01,0-.03.01-.04.02,0,0,0,0,0,0v-.12h0Z" style="fill:#205c84;"/><path d="m.47.34v-.05s0,0,0,0c.02,0,.04,0,.06,0,.01,0,.02,0,.03,0,0,0,0,0,0,0,0,.03,0,.05,0,.08v.02s0,0,0,0c-.02,0-.04,0-.05,0-.01,0-.02,0-.04,0,0,0,0,0,0,0v-.05h0Z" style="fill:#4583a9;"/><path d="m.58.34v-.05s0,0,0,0c.02,0,.03.01.05.02,0,0,0,0,0,0v.1s0,0,0,0c0,0,0,0,0,0-.01,0-.03-.02-.05-.02,0,0,0,0,0,0,0-.02,0-.03,0-.05h0Z" style="fill:#205c84;"/><path d="m.4.37s0-.03,0-.05c0,0,0,0,0,0,.01,0,.03-.02.04-.02,0,0,0,0,0,0v.1s0,0,0,0c-.02,0-.03.01-.04.02,0,0,0,0,0,0,0,0,0,0,0,0v-.05h0Z" style="fill:#6cbeeb;"/><path d="m.47.25s0-.01,0-.02c0,0,0,0,0,0,.02,0,.04,0,.05,0,.01,0,.03,0,.04,0,0,0,0,0,0,0v.04s0,0,0,0c-.02,0-.03,0-.05,0-.01,0-.03,0-.04,0,0,0,0,0,0,0v-.02h0Z" style="fill:#4583a9;"/><path d="m.58.2h0s0,.01,0,.01c-.01,0-.02,0-.03,0-.01,0-.03,0-.04,0-.01,0-.03,0-.04,0,0,0,0,0,0,0v-.02s0,0,0,0c.02,0,.03-.01.05-.02.02,0,.04,0,.06.01,0,0,0,0,0,0,0,0,0,0,0,0h0s0,.01,0,.01Z" style="fill:#4583a9;"/><path d="m.58.25v-.02s0,0,0,0c.02,0,.03.01.05.02,0,0,0,0,0,0v.04s0,0,0,0c-.01,0-.03-.02-.05-.02,0,0,0,0,0,0,0,0,0-.01,0-.02h0Z" style="fill:#205c84;"/><path d="m.45.25v.02s0,0,0,0c-.02,0-.03.01-.04.02,0,0,0,0,0,0,0,0,0,0,0,0,0,0,0,0,0,0,0-.01,0-.03,0-.04,0,0,0,0,0,0,.01,0,.03-.02.05-.02,0,0,0,0,0,0v.02H.45Z" style="fill:#6cbeeb;"/><path d="m.55.17s-.01-.02-.02-.03c0,0,0,0,0,0h-.01s0,0,0,0c0,0,0,0-.01,0,0,0-.01.01-.01.02,0,0,0,0,0,0h.06s0,0,0,0Z" style="fill:#4583a9;"/><path d="m.52.13s0,0,0,0c0,0,0-.01,0-.01,0,0,0,0,0,0,0,0,0,0,0,0,0,0,0,0,0,0,0,0,0,0,0,0,0,0,0,0,0,0,0,0,0-.02,0-.03,0-.02,0-.03,0-.05,0,0,0,0,0,0,0,0,0,0,0,0,0,.02,0,.04,0,.05,0,0,0,.01,0,.02,0,0,0,0,0,.01,0,0,0,0,0,0,0,0,0,0,0,.01,0,0,0,0,0,0,0,0,0,.01,0,.01,0,0,0,0,0,0,0,0,0,0,0,0h.01s0,0,0,0h0Z" style="fill:#6cbeeb;"/></svg>